# xmcd
#
# Track frame offsets:
#	150
#	13050
#	26550
#	36900
#	49125
#	62250
#	73875
#	87375
#	99075
#	112875
#	127275
#	139800
#	153825
#	168975
#	182250
#	200175
#	213225
#	228675
#	258825
#	268200
#
# Disc length: 3785 seconds
#
# Revision: 0
# Processed by: cddbd v1.5.2PL0 Copyright (c) Steve Scherf et al.
# Submitted via: EasyCDDAExtractor 16.0.6.1
#
DISCID=1b0ec714
DTITLE=Συλλογικός δίσκος - Χρυσή δισκοθήκη 1973
DYEAR=1995
DGENRE=Λαϊκή
TTITLE0=Πάριος Γιάννης - Θα σε θυμάμαι [Γ. Σπανού-Πυθαγόρα]
TTITLE1=Γαλάνη Δήμητρα - Αν μ' αγαπάς φίλα σταυρό [Γ. Χατζηνάσιου-Γ. Λογοθέτη]
TTITLE2=Καλατζής Γιάννης-χορωδία - Άσπρα θα φορέσω [Γ. Κατσαρού-Πυθαγόρα]
TTITLE3=Αλεξίου Χάρις-Λοϊζος Μάνος-χορωδία - Μιά καλημέρα [Μ. Λοϊζου-Δ. Χριστο
TTITLE3=δούλου]
TTITLE4=Μητσιάς Μανώλης - Τι να πούμε τι [Γ. Χατζηνάσιου-Γ. Λογοθέτη]
TTITLE5=Μητσιάς Μανώλης - Με λένε Γιώργο [Γ. Χατζηνάσιου-Γ. Κανελλόπουλου]
TTITLE6=Γαλάνη Δήμητρα - Συγγνώμη που σ' αγάπησα πολύ [Γ. Χατζηνάσιου-Γ. Κανελ
TTITLE6=λόπουλου]
TTITLE7=Κόκοτας Σταμάτης - Νά 'χα τα χρόνια σου [Γ. Χατζηνάσιου-Γ. Κανελλόπουλ
TTITLE7=ου]
TTITLE8=Αλεξίου Χάρις-χορωδία - Ποιος το ξέρει [Μ. Λοϊζου]
TTITLE9=Βοσκόπουλος Τόλης - Χωρίς αυτήν [Ά. Πάνου]
TTITLE10=Μπιθικώτσης Γρηγόρης-Γκίκα Βούλα-ΚαρανικόλαςΝ. - Εγνατίας 406 (Όπα-όπ
TTITLE10=α) [Γ. Μπιθικώτση-Κ. Βίρβου]
TTITLE11=Καζαντζίδης Στέλιος - Κάψε, κάψε [Β. Βασιλειάδη-Πυθαγόρα]
TTITLE12=Διονυσίου Στράτος - Μπαγλαμάδες και μπουζούκια [Α. Κατινάρη-Θ. Σοφού]
TTITLE13=Πάνου Πόλυ-χορωδία - Δώδεκα τσιγγάνες [Γ. Μητσάκη]
TTITLE14=Κοντολάζος Δημήτρης - Ο μπαρμπα Λιάς [Π. Ζέρβα-Δ. Καραστάθη]
TTITLE15=Γαλάνη Δήμητρα - Βροχή και σήμερα [Γ. Σπανού-Λ. Παπαδόπουλου]
TTITLE16=Σμοκοβίτης Κώστας-Αλιμπέρτη Αλ.-χορωδία - Καλημέρα ήλιε [Μ. Λοϊζου]
TTITLE17=Γαργανουράκης Χαράλαμπος - Τα λόγια και τα χρόνια τα χαμένα [Γ. Μαρκό
TTITLE17=πουλου-Μ. Ελευθερίου]
TTITLE18=Κηλαηδόνης Λουκιανός-χορωδία - Οικονομία κάνε [Λ. Κηλαηδόνη-Γ. Νεγρεπ
TTITLE18=όντη]
TTITLE19=Ανδρεάδης Θέμης-Χριστοδούλου Λ. - Ο Ταρζάν [Γ. Μαρκόπουλου]
EXTD=
EXTT0=
EXTT1=
EXTT2=
EXTT3=
EXTT4=
EXTT5=
EXTT6=
EXTT7=
EXTT8=
EXTT9=
EXTT10=
EXTT11=
EXTT12=
EXTT13=
EXTT14=
EXTT15=
EXTT16=
EXTT17=
EXTT18=
EXTT19=
PLAYORDER=
